<?xml version="1.0" encoding="utf-8"?>
<!-- Generator: Adobe Illustrator 15.1.0, SVG Export Plug-In . SVG Version: 6.00 Build 0)  -->
<!DOCTYPE svg PUBLIC "-//W3C//DTD SVG 1.1//EN" "http://www.w3.org/Graphics/SVG/1.1/DTD/svg11.dtd">
<svg version="1.1" id="Capa_1" xmlns="http://www.w3.org/2000/svg" xmlns:xlink="http://www.w3.org/1999/xlink" x="0px" y="0px"
	 width="300px" height="118px" viewBox="-93.409 -38.804 300 118" enable-background="new -93.409 -38.804 300 118"
	 xml:space="preserve">
<path d="M-64.21-23.066L-64.21-23.066c-5.805,0.018-11.542,2.231-15.997,6.686c-1.035,1.035-1.029,2.682-0.006,3.702
	c1.003,1.003,2.667,1.033,3.705-0.006c3.4-3.396,7.775-5.155,12.221-5.164l0.22-0.048c4.361,0.039,8.682,1.76,11.931,5.004
	c1.044,1.044,2.752,1.033,3.767,0.018c1.018-1.014,1.009-2.708-0.039-3.75c-4.242-4.241-9.931-6.44-15.626-6.442H-64.21
	L-64.21-23.066z M-64.144-38.576L-64.144-38.576c-9.708,0.083-19.485,3.815-26.967,11.293c-1.035,1.038-1.048,2.661-0.006,3.702
	c1.003,1.005,2.669,1.038,3.708,0c6.442-6.443,14.813-9.683,23.229-9.742c8.393-0.08,16.739,3.062,23.076,9.398
	c1.044,1.046,2.753,1.035,3.767,0.021c1.014-1.015,1.026-2.724-0.018-3.771C-44.685-35.011-54.39-38.669-64.144-38.576
	L-64.144-38.576z"/>
<path d="M-38.112,5.572c0.027-3.782-3.02-6.834-6.804-6.805l-41.132,0.282c-3.784,0.027-6.875,3.118-6.902,6.9l-0.46,66.442
	c-0.026,3.786,3.022,6.833,6.808,6.806l41.131-0.285c3.782-0.025,6.876-3.117,6.897-6.902L-38.112,5.572z M-42.695,57.82
	c-0.018,2.324-1.91,4.216-4.227,4.233l-38.005,0.261c-2.319,0.018-4.185-1.852-4.17-4.168l0.353-50.662
	c0.015-2.319,1.907-4.212,4.227-4.227l38.004-0.267c2.32-0.015,4.186,1.852,4.168,4.17L-42.695,57.82z M-80.921,72.448l-5.559-0.015
	c-1.644,0.012-3.002-1.348-3.043-3.043c-0.012-1.678,1.361-3.047,3.112-3.109l5.562,0.013c1.673-0.04,3.029,1.322,3.043,3.042
	C-77.819,71.035-79.219,72.443-80.921,72.448z M-63.562,72.261l-5.592,0.064c-1.646-0.042-3.079-1.369-3.014-3.018
	c-0.009-1.723,1.388-3.126,3.085-3.082l5.538-0.064c1.696-0.013,3.079,1.364,3.067,2.963C-60.46,70.904-61.836,72.276-63.562,72.261
	z M-46.183,72.197l-5.535,0.01c-1.675,0.037-3.058-1.347-3.046-3.042c0.042-1.728,1.364-3.05,3.114-3.115l5.559,0.011
	c1.623-0.035,2.999,1.347,2.966,2.97C-43.086,70.78-44.46,72.156-46.183,72.197z"/>
<g>
	<path d="M-3.865-28.351v12.389h16.466v3.877H-3.865V3.019h-4.03v-35.245h22.409v3.875H-3.865z"/>
	<path d="M44.124-10.271c0,7.955-5.591,13.445-13.445,13.445s-13.442-5.49-13.442-13.445c0-7.905,5.589-13.344,13.442-13.344
		S44.124-18.176,44.124-10.271z M21.163-10.219c0,5.842,3.976,9.868,9.516,9.868s9.516-4.03,9.516-9.868
		c0-5.793-3.976-9.821-9.516-9.821S21.163-16.012,21.163-10.219z"/>
	<path d="M75.297-13.346V3.019H71.37v-15.306c0-4.686-2.821-7.455-7.504-7.455c-5.236,0.054-8.459,3.479-8.912,8.514V3.024h-3.927
		v-26.54h3.927v5.842c1.864-4.028,5.438-5.943,10.271-5.993C71.573-23.666,75.297-19.74,75.297-13.346z"/>
	<path d="M108.285-10.271c0,7.955-5.591,13.445-13.444,13.445s-13.442-5.49-13.442-13.445c0-7.905,5.589-13.344,13.442-13.344
		S108.285-18.176,108.285-10.271z M85.323-10.219c0,5.842,3.977,9.868,9.516,9.868s9.516-4.03,9.516-9.868
		c0-5.793-3.977-9.821-9.516-9.821S85.323-16.012,85.323-10.219z"/>
	<path d="M20.051,33.242l-2.417,3.072c-2.718-2.77-6.546-4.431-10.424-4.431c-7.955,0-14.351,6.14-14.351,13.897
		c0,7.703,6.396,13.896,14.351,13.896c3.878,0,7.654-1.61,10.424-4.23l2.469,2.771c-3.477,3.274-8.211,5.44-13.093,5.44
		c-10.17,0-18.229-7.907-18.229-17.876c0-9.873,8.159-17.675,18.378-17.675C11.995,28.11,16.677,30.069,20.051,33.242z"/>
	<path d="M50.168,50.161c0,7.954-5.591,13.444-13.445,13.444c-7.854,0-13.445-5.49-13.445-13.444
		c0-7.905,5.591-13.342,13.445-13.342C44.577,36.82,50.168,42.258,50.168,50.161z M27.208,50.213c0,5.842,3.976,9.867,9.516,9.867
		c5.539,0,9.515-4.027,9.515-9.867c0-5.793-3.976-9.821-9.515-9.821C31.184,40.392,27.208,44.42,27.208,50.213z"/>
	<path d="M100.929,47.091v16.364h-3.924V48.148c0-4.734-2.771-7.505-7.354-7.505c-5.485,0.153-8.658,4.08-8.658,9.772v13.04h-3.979
		V48.148c0-4.734-2.721-7.505-7.352-7.505c-5.438,0.153-8.713,4.08-8.713,9.772v13.04h-3.878V36.918h3.878v5.995
		c1.763-4.132,5.34-6.091,10.121-6.143c4.985,0,8.407,2.567,9.516,6.95c1.661-4.683,5.389-6.898,10.476-6.95
		C97.253,36.768,100.929,40.698,100.929,47.091z"/>
	<path d="M136.79,50.265c0,7.854-5.136,13.344-12.64,13.344c-4.734,0-8.358-2.167-10.325-5.843v15.459h-3.925V36.918h3.925v5.741
		c1.964-3.725,5.591-5.892,10.222-5.892C131.554,36.768,136.79,42.308,136.79,50.265z M132.812,50.161c0-5.689-3.93-9.87-9.466-9.87
		c-5.589,0-9.519,4.129-9.519,9.87c0,5.793,3.93,9.87,9.519,9.87C128.882,60.033,132.812,55.903,132.812,50.161z"/>
	<path d="M147.62,42.813c1.764-3.875,5.035-5.99,9.516-6.042v3.976c-5.588-0.101-9.062,3.376-9.516,8.612v14.1h-3.927v-26.54h3.927
		V42.813z"/>
	<path d="M177.635,59.379c-2.115,2.87-5.488,4.281-9.718,4.281c-5.49,0-9.016-3.525-9.016-8.11c0-4.633,3.679-7.553,9.922-7.604
		h8.713v-1.562c0-3.877-2.418-6.194-7.101-6.194c-2.922,0-5.64,1.108-8.41,3.021l-1.659-2.871c3.425-2.265,6.296-3.574,10.825-3.574
		c6.547,0,10.171,3.474,10.22,9.166l0.052,17.523h-3.828V59.379z M177.585,54.292v-3.173h-8.257c-4.432,0-6.748,1.358-6.748,4.281
		c0,2.92,2.365,4.835,6.093,4.835C173.154,60.236,176.576,57.968,177.585,54.292z"/>
	<path d="M205.736,39.186l-1.509,3.122c-2.065-1.311-4.734-2.164-7.204-2.164c-2.969,0-5.236,1.056-5.236,3.525
		c0,5.892,14.804,2.87,14.804,12.386c0,5.237-4.634,7.554-9.72,7.554c-3.777,0-7.654-1.31-10.171-3.728l1.512-2.972
		c2.266,2.117,5.688,3.375,8.81,3.375c3.124,0,5.643-1.159,5.691-3.776c0.15-6.396-14.702-3.122-14.653-12.539
		c0-5.083,4.382-7.198,9.218-7.198C200.45,36.768,203.52,37.674,205.736,39.186z"/>
</g>
</svg>
