<svg xmlns="http://www.w3.org/2000/svg" viewBox="0 0 47.31 19.36"><title>menu_categoria</title><path d="M6.39,6.75V1.56L4.09,6.09H3.66L1.37,1.56V6.75H.68V.45h.89L3.88,5,6.18.45h.88v6.3Z" style="fill:#1a1a1a"/><path d="M12.87,4.65H9a1.66,1.66,0,0,0,1.72,1.51,2,2,0,0,0,1.47-.59l.39.41a2.49,2.49,0,0,1-1.91.79,2.27,2.27,0,0,1-2.36-2.4A2.27,2.27,0,0,1,10.66,2C12.19,2,12.94,3,12.87,4.65Zm-.63-.58a1.48,1.48,0,0,0-1.58-1.49A1.6,1.6,0,0,0,9,4.08Z" style="fill:#1a1a1a"/><path d="M18.33,3.83V6.75h-.7V4a1.23,1.23,0,0,0-1.34-1.33A1.54,1.54,0,0,0,14.69,4.2V6.75H14V2h.7v1A1.87,1.87,0,0,1,16.53,2,1.68,1.68,0,0,1,18.33,3.83Z" style="fill:#1a1a1a"/><path d="M23.92,6.75h-.7V5.68a1.81,1.81,0,0,1-1.8,1.1,1.67,1.67,0,0,1-1.77-1.85V2h.7V4.74a1.22,1.22,0,0,0,1.31,1.33,1.57,1.57,0,0,0,1.56-1.74V2h.7ZM21.35,1.22,22.43,0l.71.34L22,1.22Z" style="fill:#1a1a1a"/><path d="M32.76,4.39A2.22,2.22,0,0,1,30.5,6.78a2,2,0,0,1-1.85-1V8.5H28V2h.7V3A2,2,0,0,1,30.48,2,2.25,2.25,0,0,1,32.76,4.39Zm-.71,0a1.7,1.7,0,1,0-3.39,0,1.7,1.7,0,1,0,3.39,0Z" style="fill:#1a1a1a"/><path d="M38.23,4.38a2.4,2.4,0,1,1-4.81,0,2.4,2.4,0,0,1,4.81,0Zm-4.11,0a1.7,1.7,0,1,0,3.4,0,1.7,1.7,0,1,0-3.4,0Z" style="fill:#1a1a1a"/><path d="M40.08,3.06A1.77,1.77,0,0,1,41.78,2v.71a1.57,1.57,0,0,0-1.7,1.54V6.75h-.7V2h.7Z" style="fill:#1a1a1a"/><path d="M6.49,11.48,5.57,12.6a2.53,2.53,0,0,0-1.82-.91,2.15,2.15,0,0,0,0,4.31,2.7,2.7,0,0,0,1.82-.82l.93,1a4.1,4.1,0,0,1-2.83,1.25,3.56,3.56,0,1,1,.06-7.12A4,4,0,0,1,6.49,11.48Z" style="fill:#1a1a1a"/><path d="M10.39,16.74a2.07,2.07,0,0,1-1.69.7,1.67,1.67,0,0,1-1.85-1.68c0-1,.73-1.61,2-1.62h1.48V14c0-.57-.38-.9-1.12-.9a3.41,3.41,0,0,0-1.6.47l-.48-1.06a5,5,0,0,1,2.43-.62c1.44,0,2.27.72,2.28,1.93v3.51H10.39Zm0-1.21V15H9.17c-.59,0-.88.18-.88.61s.32.68.84.68A1.19,1.19,0,0,0,10.38,15.53Z" style="fill:#1a1a1a"/><path d="M16.46,17.07a2.87,2.87,0,0,1-1.4.37,1.55,1.55,0,0,1-1.69-1.66V13.29h-.75V12.23h.75V10.75H14.9v1.48h1.46V13.3H14.9v2.22c0,.45.19.63.52.62a1.78,1.78,0,0,0,.72-.2Z" style="fill:#1a1a1a"/><path d="M22.2,15.15H18.34a1.37,1.37,0,0,0,1.39,1.08,1.9,1.9,0,0,0,1.36-.57l.81.82a3,3,0,0,1-2.3.95,2.6,2.6,0,0,1-2.81-2.73,2.62,2.62,0,0,1,2.77-2.76C21.45,11.94,22.33,13.19,22.2,15.15Zm-1.44-.91a1.12,1.12,0,0,0-1.19-1.17,1.26,1.26,0,0,0-1.26,1.17Z" style="fill:#1a1a1a"/><path d="M28.16,16.87c0,1.53-1.15,2.5-2.87,2.5a4.18,4.18,0,0,1-2.34-.71l.57-1.08a2.84,2.84,0,0,0,1.67.54c.88,0,1.44-.47,1.44-1.2v-.61a1.9,1.9,0,0,1-1.62.78,2.36,2.36,0,0,1-2.35-2.6A2.32,2.32,0,0,1,25,11.94a1.94,1.94,0,0,1,1.66.78V12h1.53Zm-1.53-2.34a1.27,1.27,0,0,0-1.26-1.4,1.29,1.29,0,0,0-1.27,1.4,1.27,1.27,0,1,0,2.53,0Z" style="fill:#1a1a1a"/><path d="M34.78,14.68a2.67,2.67,0,0,1-2.88,2.75A2.67,2.67,0,0,1,29,14.68a2.66,2.66,0,0,1,2.89-2.74A2.66,2.66,0,0,1,34.78,14.68Zm-4.22,0a1.35,1.35,0,1,0,2.68,0,1.35,1.35,0,1,0-2.68,0Z" style="fill:#1a1a1a"/><path d="M37.24,13a2,2,0,0,1,1.78-1v1.45c-1.1-.1-1.78.49-1.78,1.4v2.59H35.7V12h1.54Z" style="fill:#1a1a1a"/><path d="M40.95,11.35H39.73l1.06-1.63,1.43.54Zm-1.19,6V12H41.3v5.38Z" style="fill:#1a1a1a"/><path d="M45.8,16.74a2.07,2.07,0,0,1-1.69.7,1.67,1.67,0,0,1-1.85-1.68c0-1,.73-1.61,2-1.62h1.48V14c0-.57-.38-.9-1.12-.9a3.41,3.41,0,0,0-1.6.47l-.48-1.06A5,5,0,0,1,45,11.93c1.44,0,2.27.72,2.28,1.93v3.51H45.8Zm0-1.21V15H44.58c-.59,0-.88.18-.88.61s.32.68.84.68A1.19,1.19,0,0,0,45.79,15.53Z" style="fill:#1a1a1a"/></svg>