<?xml version="1.0" encoding="utf-8"?>
<!-- Generator: Adobe Illustrator 15.1.0, SVG Export Plug-In . SVG Version: 6.00 Build 0)  -->
<!DOCTYPE svg PUBLIC "-//W3C//DTD SVG 1.1//EN" "http://www.w3.org/Graphics/SVG/1.1/DTD/svg11.dtd">
<svg version="1.1" id="Capa_1" xmlns="http://www.w3.org/2000/svg" xmlns:xlink="http://www.w3.org/1999/xlink" x="0px" y="0px"
	 width="300px" height="97.934px" viewBox="6.121 0 300 97.934" enable-background="new 6.121 0 300 97.934" xml:space="preserve">
<rect x="7.188" y="50.59" fill="#ED2C36" width="59.414" height="4.718"/>
<rect x="66.542" y="50.59" fill="#8F347B" width="59.413" height="4.718"/>
<rect x="125.955" y="50.59" fill="#FFD006" width="59.414" height="4.718"/>
<rect x="185.37" y="50.59" fill="#BDBFC1" width="59.414" height="4.718"/>
<rect x="244.784" y="50.59" fill="#F0584F" width="59.414" height="4.718"/>
<g>
	<path fill="#1D1D1B" d="M69.442,7.402c-0.049-3.451-3.844-2.502-3.844-3.536c0-0.433,0.093-0.521,0.471-0.521
		c1.756,0,3.466,0.184,5.222,0.184c1.468,0,2.938-0.184,4.412-0.184c0.76,0,0.904,0.087,0.904,0.466c0,1.138-3.42,0.054-3.42,3.59
		v25.341c0,3.207,4.223,2.129,4.223,3.541c0,0.327-0.14,0.472-0.947,0.472c-1.088,0-3.133-0.188-5.172-0.188
		c-2.894,0-3.893,0.188-4.555,0.188c-0.855,0-0.995-0.233-0.995-0.707c0-1.372,3.701,0.195,3.701-4.485"/>
</g>
<g>
	<path fill="#1D1D1B" d="M118.258,30.244c0,6.798,4.988,4.347,4.988,5.947c0,0.328-0.2,0.562-1.377,0.562
		c-1.621,0-2.337-0.189-5.122-0.189c-2.239,0-3.804,0.189-5.181,0.189c-0.285,0-0.762-0.138-0.762-0.562
		c0-1.278,3.704,0.189,3.704-5.051V8.534c0-5.664-3.883-2.791-3.883-4.485c0-0.384,0.23-0.706,0.607-0.706
		c0.427,0,2.093,0.179,4.848,0.179c2.362,0,3.128-0.179,5.396-0.179c6.042,0,12.726,2.073,12.726,9.104
		c0,1.89-1.424,9.061-11.528,9.061c-0.481,0-3.227-0.23-3.227-1.08c0-0.333,0.238-0.426,0.471-0.426
		c0.384,0,1.375,0.277,3.083,0.277c4.834,0,7.683-2.3,7.683-6.552c0-5.714-4.41-8.728-9.861-8.728c-1.526,0-2.566,0-2.566,1.412"/>
</g>
<g>
	<path fill="#1D1D1B" d="M170.556,30.946c0,2.79-0.379,3.923,3.605,3.923c10.958,0,12.571-4.858,13.19-4.858
		c0.33,0,0.38,0.473,0.38,0.557c0,1.706-1.23,3.363-2.377,4.585c-1.511,1.696-2.551,1.606-4.656,1.606
		c-3.599,0-7.2-0.289-10.814-0.192c-1.903,0.047-3.878,0.192-5.782,0.192c-0.428,0-0.712-0.094-0.712-0.473
		c0.098-0.567,0.567-0.472,2.089-1.222c1.227-0.571,1.326-1.896,1.326-4.118V7.017c0-2.452-3.988-2.112-3.988-3.063
		c0-0.522,0.337-0.611,0.951-0.611c0.999,0,2.466,0.188,4.793,0.188c2.696,0,3.841-0.188,4.565-0.188
		c0.602,0,0.891,0.089,0.891,0.661c0,1.079-3.461-0.093-3.461,4.009"/>
</g>
<g>
	<path fill="#1D1D1B" d="M226.441,17.078c0,1.601-0.101,1.601,1.8,1.601h5.127c4.934,0,3.656-3.774,4.797-3.774
		c0.37,0,0.513,0.517,0.513,0.891c0,1.66-0.093,3.26-0.093,4.779c0,1.218,0.093,2.444,0.093,3.723c0,0.421-0.185,0.611-0.513,0.611
		c-1.475,0,0.138-4.152-3.848-4.152h-7.02c-1.001,0-0.856,0.806-0.856,1.517v8.672c0,2.787-0.374,3.925,3.604,3.925
		c10.965,0,12.566-4.863,13.191-4.863c0.33,0,0.384,0.472,0.384,0.562c0,1.705-1.242,3.361-2.377,4.579
		c-1.516,1.706-2.567,1.607-4.644,1.607c-3.616,0-7.217-0.289-10.827-0.189c-1.898,0.049-3.894,0.189-5.786,0.189
		c-0.426,0-0.709-0.09-0.709-0.472c0.093-0.562,0.567-0.469,2.087-1.219c1.235-0.571,1.319-1.899,1.319-4.118V9.426
		c0-2.124,0-4.387-2.562-4.764c-0.372-0.094-1.416-0.19-1.416-0.756c0-0.383,0.273-0.561,1.661-0.561
		c8.966,0,11.438,0.177,13.424,0.177c0.947,0,5.319-0.177,6.786-0.177c0.376,0,0.466,0.466,0.466,1.028
		c0,5.251-0.655,5.625-0.935,5.625c-1.146,0-0.382-2.268-1.146-3.357c-1.232-1.602-6.155-1.319-8.063-1.319
		c-4.561,0-4.461-0.183-4.461,2.976"/>
</g>
<g>
	<path fill="#1D1D1B" d="M303.014,2.319c-1.913,0-4.365,0.603-6.177,2.178c-3.381,2.954-5.647,7.881-6.972,11.044
		c-0.406,1.069-0.83,1.397-1.06,1.397c-0.292,0-0.571-0.277-0.949-0.853L282.8,7.963c-0.285-0.423-0.851-1.173-0.851-1.931
		c0-1.372,2.223-1.416,2.223-2.223c0-0.416-0.567-0.465-0.894-0.465c-0.479,0-1.762,0.182-3.329,0.182
		c-3.211,0-4.125-0.182-5.404-0.182c-0.333,0-0.617,0.375-0.617,0.704c0,0.801,2.328,0.235,3.551,2.263l7.931,12.596
		c0.379,0.576,1.095,1.522,1.095,2.417v11.421c0,3.353-3.662,2.124-3.662,3.447c0,0.515,0.295,0.565,0.712,0.565
		c0.433,0,2.143-0.192,4.265-0.192c1.762,0,4.523,0.192,5.223,0.192c0.676,0,1.101-0.05,1.101-0.473
		c0-1.461-3.892-0.149-3.892-4.251V20.748c0.952-2.854,2.937-7.494,5.895-11.159c2.321-2.894,5.047-5.142,8.728-6.399
		c0.259-0.09,0.466-0.2,0.466-0.454C305.341,2.304,303.014,2.319,303.014,2.319"/>
</g>
<g>
	<path fill="#1D1D1B" d="M37.293,37.259c0-0.23-0.289-0.3-0.289-0.3c-2.859-0.524-5.535-2.51-7.559-4.613
		c-3.3-3.441-6.082-7.822-7.161-9.875c-0.318-0.731,0.14-0.815,0.14-0.815v-0.006c5.57-2.143,6.49-7.682,6.49-9.2
		c0-7.036-6.684-9.104-12.716-9.104c-2.278,0-3.038,0.184-5.406,0.184c-2.754,0-4.409-0.184-4.843-0.184
		C5.572,3.345,5.338,3.678,5.338,4.051c0,1.695,3.885-1.179,3.885,4.485v22.606c0,5.236-3.696,3.774-3.696,5.047
		c0,0.428,0.466,0.567,0.755,0.567c1.383,0,2.941-0.188,5.168-0.188c2.808,0,3.516,0.188,5.137,0.188
		c1.178,0,1.372-0.235,1.372-0.567c0-1.596-4.977,0.851-4.977-5.952V6.412c0-1.418,1.037-1.418,2.551-1.418
		c5.46,0,9.779,3.014,9.869,8.733c0.061,3.868-2.845,7.537-7.688,7.537c-1.701,0-1.323-0.099-1.71-0.099
		c-0.229,0-0.471,0.099-0.471,0.428c0,0.442,0.357,0.657,0.76,0.776c0.537,0.223,1.756,0.423,3.022,2.372h0.006
		c3.236,5.265,6.875,13.159,15.181,13.159C37.601,37.9,37.293,37.537,37.293,37.259"/>
</g>
<g>
	<polyline fill="#1D1D1B" points="178.657,90.229 178.657,83.528 164.819,83.528 164.819,90.229 163.214,90.229 163.214,65.175 
		164.819,65.175 164.819,82.045 178.657,82.045 178.657,68.605 180.266,68.605 180.266,90.229 	"/>
</g>
<g>
	<path fill="#1D1D1B" d="M180.994,90.957h-3.063v-6.701h-12.384v6.701h-3.061v-26.51h3.061v16.87h12.384V67.878h3.063V90.957z
		 M179.387,89.502h0.151V69.334h-0.151v13.439h-15.296V65.902h-0.148v23.6h0.148V82.8h15.296V89.502z"/>
</g>
<g>
	<path fill="#1D1D1B" d="M221.242,79.416c0-5.342-3.892-9.729-9.232-9.729c-5.346,0-9.175,4.323-9.175,9.668v0.061
		c0,5.345,3.892,9.729,9.233,9.729c5.346,0,9.174-4.322,9.174-9.665 M212.01,90.6c-6.551,0-10.845-5.221-10.845-11.12v-0.063
		c0-5.897,4.358-11.185,10.903-11.185c6.551,0,10.845,5.223,10.845,11.123c0.028,0.029,0.028,0.029,0,0.061
		C222.913,85.316,218.557,90.6,212.01,90.6"/>
</g>
<g>
	<path fill="#1D1D1B" d="M212.01,91.328c-6.599,0-11.572-5.094-11.572-11.848c0-6.743,5.108-11.976,11.631-11.976
		c6.499,0,11.425,4.946,11.569,11.553l0.281,0.29l-0.281,0.336C223.503,86.234,218.444,91.328,212.01,91.328z M212.068,68.96
		c-6.369,0-10.175,5.316-10.175,10.456c0,5.989,4.349,10.457,10.116,10.457c6.609,0,10.174-5.388,10.174-10.457v-0.061
		C222.184,73.428,217.835,68.96,212.068,68.96z"/>
</g>
<g>
	<path fill="#1D1D1B" d="M212.07,89.874c-5.587,0-9.964-4.594-9.964-10.459c0-5.986,4.258-10.456,9.901-10.456
		c5.586,0,9.964,4.593,9.964,10.456C221.972,85.405,217.714,89.874,212.07,89.874z M212.008,70.415c-4.814,0-8.445,3.844-8.445,8.94
		c0,5.108,3.737,9.062,8.508,9.062c4.813,0,8.445-3.842,8.445-8.938C220.516,74.368,216.777,70.415,212.008,70.415z"/>
</g>
<g>
	<polyline fill="#1D1D1B" points="262.593,92.8 262.593,71.446 254.038,83.896 253.916,83.896 245.357,71.446 245.357,90.229 
		243.814,90.229 243.814,68.605 245.327,68.605 254.008,81.391 262.688,68.605 264.201,68.605 264.201,92.8 	"/>
</g>
<g>
	<path fill="#1D1D1B" d="M264.93,93.527h-3.062V73.791l-7.445,10.833h-0.888l-7.447-10.833v17.167h-3.001v-23.08h2.627l8.295,12.218
		l8.295-12.218h2.627V93.527z M263.322,92.071h0.151V69.334h-0.151V92.071z M244.541,89.502h0.089V69.334h-0.089V89.502z
		 M244.788,69.334l9.189,13.364l0.019-0.028l-9.054-13.336H244.788z M263.073,69.334l-7.156,10.542l7.246-10.542H263.073z"/>
</g>
<g>
	<polyline fill="#1D1D1B" points="286.062,90.229 286.062,68.605 301.446,68.605 301.446,70.089 287.667,70.089 287.667,75.154 
		300.055,75.154 300.055,76.635 287.667,76.635 287.667,88.75 301.6,88.75 301.6,90.229 	"/>
</g>
<g>
	<path fill="#1D1D1B" d="M302.327,90.957h-16.993V67.878h16.839v2.938h-13.777v3.61h12.388v2.936h-12.388v10.659h13.932V90.957z
		 M286.79,89.502l14.081-0.024h-13.932V75.906l12.389-0.022h-12.389V69.36l13.777-0.026H286.79V89.502L286.79,89.502z"/>
</g>
</svg>
