<?xml version="1.0" encoding="UTF-8"?>
<svg width="147px" height="37px" viewBox="0 0 147 37" version="1.1" xmlns="http://www.w3.org/2000/svg" xmlns:xlink="http://www.w3.org/1999/xlink">
    <!-- Generator: Sketch 41.2 (35397) - http://www.bohemiancoding.com/sketch -->
    <title>seguimiento_despacho</title>
    <desc>Created with Sketch.</desc>
    <defs></defs>
    <g id="Page-1" stroke="none" stroke-width="1" fill="none" fill-rule="evenodd">
        <g id="seguimiento_despacho">
            <g id="Capa_1">
                <g id="XMLID_50_" transform="translate(40.764706, 0.000000)" fill="#010202">
                    <path d="M9.38823529,2.40666667 L8.77058824,3.67333333 C7.78235294,2.91333333 6.54705882,2.66 5.55882353,2.66 C4.07647059,2.66 3.08823529,3.29333333 3.08823529,4.30666667 C3.08823529,7.34666667 9.63529412,5.82666667 9.63529412,10.1333333 C9.63529412,12.16 7.90588235,13.4266667 5.43529412,13.4266667 C3.70588235,13.4266667 2.1,12.6666667 0.988235294,11.6533333 L1.60588235,10.3866667 C2.71764706,11.4 4.2,12.0333333 5.43529412,12.0333333 C7.16470588,12.0333333 8.15294118,11.2733333 8.15294118,10.1333333 C8.15294118,6.96666667 1.60588235,8.61333333 1.60588235,4.43333333 C1.60588235,2.53333333 3.21176471,1.39333333 5.68235294,1.39333333 C7.04117647,1.26666667 8.4,1.77333333 9.38823529,2.40666667 Z" id="XMLID_40_"></path>
                    <path d="M19.7647059,9.24666667 L12.6,9.24666667 C12.8470588,11.02 14.0823529,12.16 15.8117647,12.16 C16.9235294,12.16 17.7882353,11.78 18.5294118,11.02 L19.2705882,11.78 C18.4058824,12.7933333 17.1705882,13.3 15.6882353,13.3 C13.0941176,13.3 11.3647059,11.4 11.3647059,8.74 C11.3647059,6.08 13.2176471,4.18 15.6882353,4.18 C18.5294118,4.18 19.8882353,6.20666667 19.7647059,9.24666667 Z M18.6529412,8.23333333 C18.5294118,6.46 17.4176471,5.44666667 15.6882353,5.44666667 C14.0823529,5.44666667 12.8470588,6.58666667 12.6,8.23333333 L18.6529412,8.23333333 Z" id="XMLID_94_"></path>
                    <path d="M29.6470588,12.2866667 C29.6470588,14.9466667 27.9176471,16.5933333 25.2,16.5933333 C23.8411765,16.5933333 22.7294118,16.0866667 21.6176471,15.3266667 L22.2352941,14.3133333 C23.1,15.0733333 23.9647059,15.4533333 25.2,15.4533333 C27.0529412,15.4533333 28.4117647,14.3133333 28.4117647,12.4133333 L28.4117647,11.02 C27.7941176,12.16 26.6823529,12.92 25.2,12.92 C22.8529412,12.92 21.2470588,11.1466667 21.2470588,8.61333333 C21.2470588,6.08 22.8529412,4.30666667 25.2,4.30666667 C26.6823529,4.30666667 27.7941176,4.94 28.4117647,6.20666667 L28.4117647,4.43333333 L29.6470588,4.43333333 L29.6470588,12.2866667 L29.6470588,12.2866667 Z M28.2882353,8.61333333 C28.2882353,6.71333333 27.0529412,5.44666667 25.3235294,5.44666667 C23.5941176,5.44666667 22.3588235,6.71333333 22.3588235,8.61333333 C22.3588235,10.5133333 23.5941176,11.78 25.3235294,11.78 C27.0529412,11.78 28.2882353,10.3866667 28.2882353,8.61333333 Z" id="XMLID_91_"></path>
                    <path d="M40.1470588,13.3 L38.9117647,13.3 L38.9117647,11.2733333 C38.2941176,12.6666667 37.0588235,13.3 35.5764706,13.3 C33.4764706,13.3 32.3647059,12.0333333 32.3647059,9.75333333 L32.3647059,4.18 L33.6,4.18 L33.6,9.37333333 C33.6,11.02 34.4647059,11.9066667 36.0705882,11.9066667 C37.9235294,11.9066667 38.9117647,10.5133333 38.9117647,8.61333333 L38.9117647,4.18 L40.1470588,4.18 L40.1470588,13.3 Z" id="XMLID_35_"></path>
                    <path d="M44.8411765,1.64666667 C44.8411765,2.15333333 44.4705882,2.53333333 43.9764706,2.53333333 C43.4823529,2.53333333 43.1117647,2.15333333 43.1117647,1.64666667 C43.1117647,1.14 43.4823529,0.76 43.9764706,0.76 C44.4705882,0.76 44.8411765,1.14 44.8411765,1.64666667 Z M43.3588235,13.3 L43.3588235,4.30666667 L44.5941176,4.30666667 L44.5941176,13.3 L43.3588235,13.3 Z" id="XMLID_87_"></path>
                    <path d="M62.2588235,7.72666667 L62.2588235,13.3 L61.0235294,13.3 L61.0235294,8.10666667 C61.0235294,6.46 60.1588235,5.57333333 58.5529412,5.57333333 C56.7,5.57333333 55.7117647,6.96666667 55.7117647,8.86666667 L55.7117647,13.3 L54.3529412,13.3 L54.3529412,8.10666667 C54.3529412,6.46 53.4882353,5.57333333 51.8823529,5.57333333 C50.0294118,5.57333333 49.0411765,6.96666667 49.0411765,8.86666667 L49.0411765,13.3 L47.8058824,13.3 L47.8058824,4.30666667 L49.0411765,4.30666667 L49.0411765,6.33333333 C49.6588235,4.94 50.7705882,4.30666667 52.3764706,4.30666667 C53.9823529,4.30666667 55.0941176,5.19333333 55.4647059,6.71333333 C55.9588235,5.06666667 57.1941176,4.43333333 58.9235294,4.30666667 C61.0235294,4.18 62.2588235,5.57333333 62.2588235,7.72666667 Z" id="XMLID_32_"></path>
                    <path d="M66.5823529,1.64666667 C66.5823529,2.15333333 66.2117647,2.53333333 65.7176471,2.53333333 C65.2235294,2.53333333 64.8529412,2.15333333 64.8529412,1.64666667 C64.8529412,1.14 65.2235294,0.76 65.7176471,0.76 C66.2117647,0.76 66.5823529,1.14 66.5823529,1.64666667 Z M65.1,13.3 L65.1,4.30666667 L66.3352941,4.30666667 L66.3352941,13.3 L65.1,13.3 Z" id="XMLID_83_"></path>
                    <path d="M77.0823529,9.24666667 L69.9176471,9.24666667 C70.1647059,11.02 71.4,12.16 73.1294118,12.16 C74.2411765,12.16 75.1058824,11.78 75.8470588,11.02 L76.5882353,11.78 C75.7235294,12.7933333 74.4882353,13.3 73.0058824,13.3 C70.4117647,13.3 68.6823529,11.4 68.6823529,8.74 C68.6823529,6.08 70.5352941,4.18 73.0058824,4.18 C75.8470588,4.18 77.2058824,6.20666667 77.0823529,9.24666667 Z M75.8470588,8.23333333 C75.7235294,6.46 74.6117647,5.44666667 72.8823529,5.44666667 C71.2764706,5.44666667 70.0411765,6.58666667 69.7941176,8.23333333 L75.8470588,8.23333333 Z" id="XMLID_80_"></path>
                    <path d="M87.3352941,7.72666667 L87.3352941,13.3 L86.1,13.3 L86.1,8.10666667 C86.1,6.46 85.1117647,5.57333333 83.6294118,5.57333333 C81.9,5.57333333 80.7882353,6.71333333 80.6647059,8.48666667 L80.6647059,13.3 L79.4294118,13.3 L79.4294118,4.30666667 L80.6647059,4.30666667 L80.6647059,6.33333333 C81.2823529,4.94 82.5176471,4.30666667 84,4.30666667 C86.1,4.18 87.3352941,5.57333333 87.3352941,7.72666667 Z" id="XMLID_27_"></path>
                    <path d="M94.7470588,12.6666667 C94.1294118,13.0466667 93.5117647,13.3 92.7705882,13.3 C91.5352941,13.3 90.5470588,12.54 90.5470588,10.7666667 L90.5470588,5.7 L89.3117647,5.7 L89.3117647,4.68666667 L90.5470588,4.68666667 L90.5470588,2.28 L91.7823529,2.28 L91.7823529,4.68666667 L94.5,4.68666667 L94.5,5.82666667 L91.7823529,5.82666667 L91.7823529,10.7666667 C91.7823529,11.9066667 92.1529412,12.2866667 92.8941176,12.2866667 C93.3882353,12.2866667 93.7588235,12.16 94.2529412,11.78 L94.7470588,12.6666667 Z" id="XMLID_26_"></path>
                    <path d="M104.505882,8.74 C104.505882,11.4 102.652941,13.3 100.058824,13.3 C97.4647059,13.3 95.6117647,11.4 95.6117647,8.74 C95.6117647,6.08 97.4647059,4.18 100.058824,4.18 C102.652941,4.18 104.505882,6.08 104.505882,8.74 Z M96.9705882,8.74 C96.9705882,10.7666667 98.3294118,12.0333333 100.058824,12.0333333 C101.788235,12.0333333 103.147059,10.64 103.147059,8.74 C103.147059,6.84 101.788235,5.44666667 100.058824,5.44666667 C98.3294118,5.44666667 96.9705882,6.84 96.9705882,8.74 Z" id="XMLID_75_"></path>
                    <path d="M10.1294118,33.6933333 L8.89411765,33.6933333 L8.89411765,31.7933333 C8.27647059,33.06 7.04117647,33.82 5.43529412,33.82 C2.96470588,33.82 1.23529412,31.92 1.23529412,29.26 C1.23529412,26.6 2.96470588,24.7 5.43529412,24.7 C7.04117647,24.7 8.15294118,25.46 8.89411765,26.7266667 L8.89411765,21.1533333 L10.1294118,21.1533333 L10.1294118,33.6933333 Z M8.77058824,29.26 C8.77058824,27.36 7.41176471,25.84 5.55882353,25.84 C3.70588235,25.84 2.34705882,27.2333333 2.34705882,29.26 C2.34705882,31.16 3.70588235,32.5533333 5.55882353,32.5533333 C7.53529412,32.5533333 8.77058824,31.16 8.77058824,29.26 Z" id="XMLID_72_"></path>
                    <path d="M20.8764706,29.7666667 L13.7117647,29.7666667 C13.9588235,31.54 15.1941176,32.68 16.9235294,32.68 C18.0352941,32.68 18.9,32.3 19.6411765,31.54 L20.3823529,32.3 C19.5176471,33.3133333 18.2823529,33.82 16.8,33.82 C14.2058824,33.82 12.4764706,31.92 12.4764706,29.26 C12.4764706,26.6 14.3294118,24.7 16.8,24.7 C19.6411765,24.7 21,26.6 20.8764706,29.7666667 Z M19.7647059,28.6266667 C19.6411765,26.8533333 18.5294118,25.84 16.8,25.84 C15.1941176,25.84 13.9588235,26.98 13.7117647,28.6266667 L19.7647059,28.6266667 Z" id="XMLID_69_"></path>
                    <path d="M35.7,33.6933333 L34.4647059,33.6933333 L34.4647059,31.7933333 C33.8470588,33.06 32.6117647,33.82 31.0058824,33.82 C28.5352941,33.82 26.8058824,31.92 26.8058824,29.26 C26.8058824,26.6 28.5352941,24.7 31.0058824,24.7 C32.6117647,24.7 33.7235294,25.46 34.4647059,26.7266667 L34.4647059,21.1533333 L35.7,21.1533333 L35.7,33.6933333 Z M34.4647059,29.26 C34.4647059,27.36 33.1058824,25.84 31.2529412,25.84 C29.4,25.84 28.0411765,27.2333333 28.0411765,29.26 C28.0411765,31.16 29.4,32.5533333 31.2529412,32.5533333 C33.1058824,32.5533333 34.4647059,31.16 34.4647059,29.26 Z" id="XMLID_66_"></path>
                    <path d="M46.4470588,29.7666667 L39.2823529,29.7666667 C39.5294118,31.54 40.7647059,32.68 42.4941176,32.68 C43.6058824,32.68 44.4705882,32.3 45.2117647,31.54 L45.9529412,32.3 C45.0882353,33.3133333 43.8529412,33.82 42.3705882,33.82 C39.7764706,33.82 38.0470588,31.92 38.0470588,29.26 C38.0470588,26.6 39.9,24.7 42.3705882,24.7 C45.2117647,24.7 46.6941176,26.6 46.4470588,29.7666667 Z M45.3352941,28.6266667 C45.2117647,26.8533333 44.1,25.84 42.3705882,25.84 C40.7647059,25.84 39.5294118,26.98 39.2823529,28.6266667 L45.3352941,28.6266667 Z" id="XMLID_63_"></path>
                    <path d="M53.8588235,25.46 L53.3647059,26.4733333 C52.6235294,26.0933333 51.7588235,25.7133333 51.0176471,25.7133333 C50.0294118,25.7133333 49.2882353,26.0933333 49.2882353,26.8533333 C49.2882353,28.88 54.2294118,27.8666667 54.2294118,31.0333333 C54.2294118,32.8066667 52.7470588,33.5666667 51.0176471,33.5666667 C49.7823529,33.5666667 48.5470588,33.1866667 47.6823529,32.3 L48.1764706,31.2866667 C48.9176471,32.0466667 50.0294118,32.4266667 51.1411765,32.4266667 C52.1294118,32.4266667 52.9941176,32.0466667 52.9941176,31.16 C52.9941176,29.0066667 48.1764706,30.1466667 48.1764706,26.98 C48.1764706,25.2066667 49.6588235,24.5733333 51.2647059,24.5733333 C52.1294118,24.7 53.1176471,24.9533333 53.8588235,25.46 Z" id="XMLID_15_"></path>
                    <path d="M65.2235294,29.26 C65.2235294,31.92 63.4941176,33.82 61.0235294,33.82 C59.4176471,33.82 58.3058824,33.06 57.5647059,31.7933333 L57.5647059,36.9866667 L56.3294118,36.9866667 L56.3294118,24.7 L57.5647059,24.7 L57.5647059,26.6 C58.1823529,25.3333333 59.4176471,24.5733333 60.9,24.5733333 C63.4941176,24.7 65.2235294,26.4733333 65.2235294,29.26 Z M63.8647059,29.1333333 C63.8647059,27.2333333 62.6294118,25.84 60.7764706,25.84 C58.9235294,25.84 57.6882353,27.2333333 57.6882353,29.1333333 C57.6882353,31.0333333 58.9235294,32.4266667 60.7764706,32.4266667 C62.6294118,32.5533333 63.8647059,31.16 63.8647059,29.1333333 Z" id="XMLID_59_"></path>
                    <path d="M72.8823529,32.3 C72.1411765,33.3133333 71.0294118,33.6933333 69.6705882,33.6933333 C67.8176471,33.6933333 66.7058824,32.5533333 66.7058824,30.9066667 C66.7058824,29.3866667 67.9411765,28.3733333 69.9176471,28.3733333 L72.8823529,28.3733333 L72.8823529,27.8666667 C72.8823529,26.6 72.1411765,25.7133333 70.5352941,25.7133333 C69.5470588,25.7133333 68.6823529,26.0933333 67.8176471,26.7266667 L67.3235294,25.7133333 C68.4352941,24.9533333 69.4235294,24.4466667 70.9058824,24.4466667 C73.0058824,24.4466667 74.2411765,25.5866667 74.2411765,27.4866667 L74.2411765,33.44 L73.0058824,33.44 L72.8823529,32.3 Z M72.8823529,30.5266667 L72.8823529,29.5133333 L70.1647059,29.5133333 C68.6823529,29.5133333 67.9411765,30.02 67.9411765,30.9066667 C67.9411765,31.92 68.6823529,32.5533333 69.9176471,32.5533333 C71.4,32.5533333 72.5117647,31.7933333 72.8823529,30.5266667 Z" id="XMLID_56_"></path>
                    <path d="M83.8764706,25.9666667 L83.1352941,26.8533333 C82.5176471,26.22 81.5294118,25.84 80.5411765,25.84 C78.6882353,25.84 77.4529412,27.2333333 77.4529412,29.1333333 C77.4529412,31.0333333 78.6882353,32.4266667 80.5411765,32.4266667 C81.6529412,32.4266667 82.6411765,32.0466667 83.2588235,31.2866667 L84,32.0466667 C83.2588235,33.06 82.0235294,33.5666667 80.5411765,33.5666667 C77.9470588,33.5666667 76.2176471,31.6666667 76.2176471,29.0066667 C76.2176471,26.3466667 78.0705882,24.4466667 80.5411765,24.4466667 C81.9,24.7 83.1352941,25.2066667 83.8764706,25.9666667 Z" id="XMLID_10_"></path>
                    <path d="M94.5,28.12 L94.5,33.6933333 L93.2647059,33.6933333 L93.2647059,28.5 C93.2647059,26.8533333 92.2764706,25.9666667 90.7941176,25.9666667 C88.9411765,25.9666667 87.8294118,27.36 87.8294118,29.26 L87.8294118,33.6933333 L86.5941176,33.6933333 L86.5941176,21.0266667 L87.8294118,21.0266667 L87.8294118,26.7266667 C88.4470588,25.3333333 89.6823529,24.7 91.2882353,24.7 C93.2647059,24.7 94.5,25.9666667 94.5,28.12 Z" id="XMLID_9_"></path>
                    <path d="M105.370588,29.1333333 C105.370588,31.7933333 103.517647,33.6933333 100.923529,33.6933333 C98.3294118,33.6933333 96.4764706,31.7933333 96.4764706,29.1333333 C96.4764706,26.4733333 98.3294118,24.5733333 100.923529,24.5733333 C103.517647,24.7 105.370588,26.4733333 105.370588,29.1333333 Z M97.8352941,29.26 C97.8352941,31.2866667 99.1941176,32.5533333 100.923529,32.5533333 C102.652941,32.5533333 104.011765,31.16 104.011765,29.26 C104.011765,27.36 102.652941,25.9666667 100.923529,25.9666667 C99.1941176,25.9666667 97.8352941,27.2333333 97.8352941,29.26 Z" id="XMLID_51_"></path>
                </g>
                <g id="XMLID_42_" transform="translate(0.000000, 8.866667)" fill="#000000">
                    <path d="M36.5647059,18.7466667 L36.5647059,17.3533333 L36.5647059,12.16 L32.4882353,5.95333333 L24.4588235,6.08 L24.4588235,1.39333333 C24.4588235,0.506666667 23.2235294,0.76 23.2235294,0.76 L2.22352941,0.76 C1.23529412,0.76 1.23529412,2.15333333 1.23529412,2.15333333 L1.23529412,16.72 L0.988235294,17.1 C0.247058824,19.2533333 1.60588235,19.5066667 1.60588235,19.5066667 L4.07647059,19.5066667 C4.44705882,23.4333333 7.65882353,22.9266667 7.65882353,22.9266667 C10.5,23.0533333 10.7470588,19.5066667 10.7470588,19.5066667 L26.6823529,19.38 C26.9294118,23.3066667 30.2647059,22.9266667 30.2647059,22.9266667 C33.6,22.9266667 33.2294118,19.2533333 33.2294118,19.2533333 L35.8235294,19.2533333 C36.5647059,19.2533333 36.5647059,18.7466667 36.5647059,18.7466667 Z M7.53529412,21.4066667 C6.54705882,21.4066667 5.80588235,20.6466667 5.80588235,19.6333333 C5.80588235,18.62 6.54705882,17.86 7.53529412,17.86 C8.52352941,17.86 9.26470588,18.62 9.26470588,19.6333333 C9.26470588,20.6466667 8.52352941,21.4066667 7.53529412,21.4066667 Z M22.6058824,16.72 L3.45882353,16.72 L3.45882353,2.91333333 L22.4823529,2.91333333 L22.4823529,16.72 L22.6058824,16.72 Z M30.1411765,21.4066667 C29.1529412,21.4066667 28.4117647,20.6466667 28.4117647,19.6333333 C28.4117647,18.62 29.1529412,17.86 30.1411765,17.86 C31.1294118,17.86 31.8705882,18.62 31.8705882,19.6333333 C31.8705882,20.6466667 31.0058824,21.4066667 30.1411765,21.4066667 Z M34.8352941,14.5666667 L31.3764706,14.5666667 L29.8941176,12.6666667 L27.1764706,12.6666667 L27.1764706,7.98 L31.9941176,7.98 L34.8352941,12.54 L34.8352941,14.5666667 Z" id="XMLID_44_"></path>
                    <path d="M15.0705882,12.6666667 C13.8352941,12.6666667 13.2176471,11.4 12.7235294,10.5133333 L12.7235294,10.5133333 C12.4764706,10.1333333 12.3529412,10.1333333 12.2294118,10.1333333 C12.1058824,10.1333333 12.1058824,10.1333333 12.1058824,10.0066667 C12.1058824,10.0066667 12.1058824,9.88 12.2294118,9.88 L12.4764706,9.88 C13.2176471,9.88 13.7117647,9.24666667 13.7117647,8.61333333 C13.7117647,7.72666667 12.9705882,7.22 12.2294118,7.22 C11.9823529,7.22 11.8588235,7.22 11.8588235,7.47333333 L11.8588235,11.2733333 C11.8588235,12.4133333 12.6,12.0333333 12.6,12.2866667 C12.6,12.2866667 12.6,12.4133333 12.3529412,12.4133333 L11.6117647,12.4133333 L10.7470588,12.4133333 C10.7470588,12.4133333 10.6235294,12.4133333 10.6235294,12.2866667 C10.6235294,12.0333333 11.2411765,12.2866667 11.2411765,11.5266667 L11.2411765,7.85333333 C11.2411765,6.96666667 10.6235294,7.34666667 10.6235294,7.09333333 C10.6235294,7.09333333 10.6235294,6.96666667 10.7470588,6.96666667 L11.4882353,6.96666667 L12.3529412,6.96666667 C13.3411765,6.96666667 14.3294118,7.34666667 14.3294118,8.48666667 C14.3294118,8.74 14.2058824,9.62666667 13.3411765,10.0066667 L13.3411765,10.0066667 C13.3411765,10.0066667 13.2176471,10.0066667 13.3411765,10.1333333 C13.4647059,10.5133333 13.9588235,11.1466667 14.4529412,11.78 C14.8235294,12.16 15.1941176,12.4133333 15.6882353,12.54 L15.6882353,12.54 C15.5647059,12.54 15.5647059,12.6666667 15.0705882,12.6666667 Z" id="XMLID_1_"></path>
                </g>
            </g>
        </g>
    </g>
</svg>